<!--?xml version="1.0" standalone="no"?-->
              <svg id="sw-js-blob-svg" viewBox="0 0 100 100" xmlns="http://www.w3.org/2000/svg" version="1.1">
                    <defs> 
                        <linearGradient id="sw-gradient" x1="0" x2="1" y1="1" y2="0">
                            <stop id="stop1" stop-color="rgba(255, 255, 255, 1)" offset="0%"></stop>
                            <stop id="stop2" stop-color="rgba(171, 14, 18, 1)" offset="100%"></stop>
                        </linearGradient>
                    </defs>
                <path fill="url(#sw-gradient)" d="M17.6,-26.4C24.6,-23,33.2,-21,38.6,-15.7C44,-10.4,46.2,-1.7,45.3,6.7C44.4,15.1,40.3,23.3,34.2,28.9C28.2,34.6,20.1,37.9,12.5,37.9C5,38,-2.2,34.8,-9.6,32.6C-17,30.4,-24.6,29.2,-29,24.8C-33.3,20.4,-34.3,12.7,-33.7,5.9C-33.2,-1,-30.9,-7.1,-27.8,-12.2C-24.7,-17.4,-20.7,-21.7,-16,-26.1C-11.2,-30.5,-5.6,-34.9,-0.1,-34.7C5.3,-34.6,10.7,-29.7,17.6,-26.4Z" width="100%" height="100%" transform="translate(50 50)" stroke-width="0" style="transition: all 0.3s ease 0s;" stroke="url(#sw-gradient)"></path>
              </svg>